<svg width="51" height="50" viewBox="0 0 51 50" fill="none" xmlns="http://www.w3.org/2000/svg">
    <path opacity=".4" d="M37.933 22.702a5.99 5.99 0 0 0 5.15-5.92 5.989 5.989 0 0 0-5.013-5.908" stroke="#45A29E" stroke-width="2.5" stroke-linecap="round" stroke-linejoin="round"/>
    <path d="M41.768 29.688c2.814.421 4.779 1.407 4.779 3.438 0 1.398-.925 2.306-2.421 2.877" stroke="#45A29E" stroke-width="2.5" stroke-linecap="round" stroke-linejoin="round"/>
    <path clip-rule="evenodd" d="M25.43 30.55c-6.696 0-12.414 1.014-12.414 5.066 0 4.05 5.683 5.094 12.414 5.094 6.696 0 12.413-1.004 12.413-5.058 0-4.055-5.682-5.102-12.413-5.102z" stroke="#45A29E" stroke-width="2.5" stroke-linecap="round" stroke-linejoin="round"/>
    <path opacity=".4" clip-rule="evenodd" d="M25.43 24.767a7.957 7.957 0 1 0-7.956-7.956 7.924 7.924 0 0 0 7.898 7.956h.058z" stroke="#45A29E" stroke-width="2.5" stroke-linecap="round" stroke-linejoin="round"/>
    <path opacity=".4" d="M12.926 22.702a5.989 5.989 0 0 1-5.15-5.92 5.989 5.989 0 0 1 5.013-5.908" stroke="#45A29E" stroke-width="2.5" stroke-linecap="round" stroke-linejoin="round"/>
    <path d="M9.091 29.688c-2.814.421-4.779 1.407-4.779 3.438 0 1.398.925 2.306 2.42 2.877" stroke="#45A29E" stroke-width="2.5" stroke-linecap="round" stroke-linejoin="round"/>
</svg>
