<svg width="16" height="18" viewBox="0 0 16 18" fill="none" xmlns="http://www.w3.org/2000/svg">
<path d="M2.54363 3.95548C4.21731 2.969 6.11793 2.44928 8.053 2.44895C9.53526 2.45189 11.002 2.75609 12.3667 3.34363L14.9581 1.6678C12.8141 0.577685 10.4507 0.00684002 8.05305 3.33343e-05C5.20595 -0.00598875 2.41496 0.804053 0.000825956 2.33706C-0.0230077 5.09441 0.469166 7.83125 1.45116 10.402L3.44181 9.11472C2.86388 7.45718 2.56038 5.71381 2.54363 3.95548Z" fill="black"/>
<path d="M13.3703 6.2836C13.1482 7.85669 12.6604 9.37902 11.9284 10.7835C11.0536 12.4838 9.70595 13.8852 8.05305 14.8134C6.75226 14.0923 5.63955 13.0665 4.80728 11.8211L2.81201 13.1112C4.08386 15.1987 5.89711 16.8902 8.05291 18.0001C10.531 16.7122 12.5537 14.6738 13.8411 12.167C15.0566 9.8126 15.7909 7.23294 16 4.58301L13.3703 6.2836Z" fill="black"/>
</svg>
