<svg width="24" height="24" viewBox="0 0 24 24" fill="none" xmlns="http://www.w3.org/2000/svg">
<path opacity="0.4" d="M5.47486 7.06275C6.08627 5.11817 8.01441 4.2176 9.90393 5.03946" stroke="#130F26" stroke-width="1.5" stroke-linecap="round" stroke-linejoin="round"/>
<mask id="path-2-outside-1_886_90531" maskUnits="userSpaceOnUse" x="1" y="5" width="22" height="15" fill="black">
<rect fill="white" x="1" y="5" width="22" height="15"/>
<path d="M13.8605 6C16.7458 6 18.8381 8.25483 18.9913 10.7209C20.7381 11.29 22 12.871 22 14.7414C22 17.0881 20.0162 19 17.5814 19H6.4186C3.85033 19 2 17.3018 2 15.1897C2 13.5287 3.12662 11.9199 4.8343 11.4704C4.94542 10.1728 5.60615 9.17347 6.52753 8.64067C7.41665 8.12643 8.50839 8.03717 9.49257 8.37457C10.3304 7.05095 11.864 6 13.8605 6ZM13.8605 6.89647C12.0542 6.89647 10.7133 7.90585 10.0887 9.10987C10.0339 9.21697 9.93723 9.29858 9.81995 9.33673C9.70266 9.37488 9.57451 9.36628 9.46371 9.31297C8.67904 8.93492 7.74386 8.97807 7.00723 9.40396C6.27077 9.82986 5.72081 10.6195 5.72081 11.8275C5.72065 12.0451 5.55827 12.2313 5.33571 12.2688C3.93836 12.4948 2.93014 13.8389 2.93014 15.1897C2.93014 16.8116 4.25709 18.1036 6.41851 18.1036H17.5813C19.5133 18.1036 21.0697 16.6035 21.0697 14.7415C21.0697 13.1658 19.9491 11.853 18.4388 11.4845C18.2307 11.4327 18.0866 11.2503 18.09 11.0431C18.1109 8.93935 16.3478 6.89647 13.8605 6.89647Z"/>
</mask>
<path d="M13.8605 6C16.7458 6 18.8381 8.25483 18.9913 10.7209C20.7381 11.29 22 12.871 22 14.7414C22 17.0881 20.0162 19 17.5814 19H6.4186C3.85033 19 2 17.3018 2 15.1897C2 13.5287 3.12662 11.9199 4.8343 11.4704C4.94542 10.1728 5.60615 9.17347 6.52753 8.64067C7.41665 8.12643 8.50839 8.03717 9.49257 8.37457C10.3304 7.05095 11.864 6 13.8605 6ZM13.8605 6.89647C12.0542 6.89647 10.7133 7.90585 10.0887 9.10987C10.0339 9.21697 9.93723 9.29858 9.81995 9.33673C9.70266 9.37488 9.57451 9.36628 9.46371 9.31297C8.67904 8.93492 7.74386 8.97807 7.00723 9.40396C6.27077 9.82986 5.72081 10.6195 5.72081 11.8275C5.72065 12.0451 5.55827 12.2313 5.33571 12.2688C3.93836 12.4948 2.93014 13.8389 2.93014 15.1897C2.93014 16.8116 4.25709 18.1036 6.41851 18.1036H17.5813C19.5133 18.1036 21.0697 16.6035 21.0697 14.7415C21.0697 13.1658 19.9491 11.853 18.4388 11.4845C18.2307 11.4327 18.0866 11.2503 18.09 11.0431C18.1109 8.93935 16.3478 6.89647 13.8605 6.89647Z" fill="black"/>
<path d="M13.8605 6C16.7458 6 18.8381 8.25483 18.9913 10.7209C20.7381 11.29 22 12.871 22 14.7414C22 17.0881 20.0162 19 17.5814 19H6.4186C3.85033 19 2 17.3018 2 15.1897C2 13.5287 3.12662 11.9199 4.8343 11.4704C4.94542 10.1728 5.60615 9.17347 6.52753 8.64067C7.41665 8.12643 8.50839 8.03717 9.49257 8.37457C10.3304 7.05095 11.864 6 13.8605 6ZM13.8605 6.89647C12.0542 6.89647 10.7133 7.90585 10.0887 9.10987C10.0339 9.21697 9.93723 9.29858 9.81995 9.33673C9.70266 9.37488 9.57451 9.36628 9.46371 9.31297C8.67904 8.93492 7.74386 8.97807 7.00723 9.40396C6.27077 9.82986 5.72081 10.6195 5.72081 11.8275C5.72065 12.0451 5.55827 12.2313 5.33571 12.2688C3.93836 12.4948 2.93014 13.8389 2.93014 15.1897C2.93014 16.8116 4.25709 18.1036 6.41851 18.1036H17.5813C19.5133 18.1036 21.0697 16.6035 21.0697 14.7415C21.0697 13.1658 19.9491 11.853 18.4388 11.4845C18.2307 11.4327 18.0866 11.2503 18.09 11.0431C18.1109 8.93935 16.3478 6.89647 13.8605 6.89647Z" stroke="black" stroke-width="0.6" mask="url(#path-2-outside-1_886_90531)"/>
</svg>
