<svg width="10" height="10" viewBox="0 0 10 10" fill="none" xmlns="http://www.w3.org/2000/svg">
<path fill-rule="evenodd" clip-rule="evenodd" d="M2.42009 3.09863H0.484344V9.33287H2.42009V3.09863ZM2.57868 1.12432C2.57868 0.504505 2.07495 0 1.45609 0C0.833625 0 0.333496 0.504505 0.333496 1.12432C0.333496 1.74414 0.833625 2.24865 1.45609 2.24865C2.07495 2.24865 2.57868 1.74414 2.57868 1.12432ZM5.48938 3.09959H3.63998V9.33383H5.57213V6.24914C5.57213 5.43833 5.72325 4.64914 6.7307 4.64914C7.72376 4.64914 7.73456 5.57887 7.73456 6.3032V9.33383H9.66671V5.91761C9.66671 4.23833 9.30331 2.94824 7.34597 2.94824C6.40328 2.94824 5.77362 3.46356 5.51456 3.95365H5.48938V3.09959Z" fill="white"/>
</svg>
