<svg width="368" height="48" viewBox="0 0 368 48" fill="none" xmlns="http://www.w3.org/2000/svg">
<g clip-path="url(#clip0_506_48349)">
<path d="M6.80776 10.5479C11.2872 7.91733 16.3741 6.53141 21.5531 6.53053C25.5202 6.53837 29.4456 7.34957 33.0984 8.91635L40.0341 4.44747C34.2957 1.54049 27.9701 0.0182401 21.5532 8.88916e-05C13.9332 -0.01597 6.46341 2.14414 0.00221059 6.23216C-0.0615779 13.5851 1.25568 20.8833 3.88389 27.7387L9.21168 24.3059C7.66491 19.8858 6.85259 15.2368 6.80776 10.5479Z" fill="black"/>
<path d="M35.7841 16.7563C35.1897 20.9513 33.8841 25.0108 31.9249 28.7561C29.5838 33.2902 25.9768 37.0273 21.553 39.5025C18.0716 37.5796 15.0935 34.8441 12.866 31.523L7.52588 34.9633C10.9299 40.53 15.7828 45.0406 21.5526 48.0004C28.1851 44.566 33.5987 39.1302 37.0441 32.4454C40.2971 26.167 42.2627 19.2879 42.8222 12.2214L35.7841 16.7563Z" fill="black"/>
<path d="M86.2454 37.3296C84.4305 36.376 82.9155 34.9269 81.8721 33.1467L83.7883 31.1259C84.4771 32.72 85.6723 34.0357 87.1841 34.8645C88.9073 35.8672 90.867 36.3773 92.8545 36.34C94.6593 36.4165 96.4441 35.9299 97.9665 34.9456C98.6257 34.48 99.1558 33.8507 99.5054 33.1179C99.855 32.3853 100.013 31.5739 99.9633 30.7619C99.9739 30.0024 99.8171 29.2501 99.5051 28.5595C99.2385 27.9613 98.8817 27.4091 98.447 26.9224C97.9121 26.3916 97.2985 25.9484 96.6286 25.6088C95.8166 25.1642 95.1382 24.8273 94.5929 24.5983C94.0475 24.3694 93.2689 24.0662 92.2563 23.6889C91.1118 23.2584 90.2729 22.9284 89.7395 22.699C89.2081 22.4702 88.4827 22.0996 87.5638 21.5874C86.819 21.2055 86.1385 20.7076 85.5465 20.112C85.0622 19.5496 84.6651 18.9159 84.3689 18.2328C84.0027 17.4214 83.8187 16.5379 83.8302 15.646C83.7705 14.5423 83.975 13.4404 84.4267 12.434C84.8785 11.4277 85.5641 10.5468 86.4249 9.86635C88.2683 8.48179 90.5206 7.76947 92.8153 7.84533C94.6942 7.81603 96.5582 8.18797 98.2854 8.93693C99.791 9.57632 101.13 10.5581 102.201 11.8062L100.363 13.7063C98.739 11.389 96.2233 10.2305 92.8153 10.2308C91.2363 10.1767 89.6819 10.6372 88.3811 11.5444C87.7838 11.9911 87.3062 12.5821 86.9923 13.2634C86.6785 13.9446 86.5379 14.6946 86.5838 15.4449C86.5723 16.2051 86.7507 16.9559 87.103 17.6276C87.5019 18.3282 88.0731 18.9125 88.7611 19.3239C89.4337 19.7611 90.1342 20.1527 90.8579 20.4963C91.4969 20.7924 92.3891 21.1561 93.5347 21.5874C94.7854 22.072 95.6835 22.4289 96.2297 22.658C97.0302 23.018 97.8102 23.4228 98.5662 23.8707C99.3931 24.3085 100.148 24.8746 100.802 25.5482C101.346 26.1904 101.791 26.9128 102.121 27.6904C102.528 28.6184 102.733 29.6251 102.72 30.6408C102.787 31.8221 102.569 33.0019 102.085 34.0792C101.601 35.1563 100.866 36.0984 99.9435 36.8245C97.8699 38.3229 95.3611 39.0768 92.8155 38.9667C90.523 38.9997 88.2609 38.436 86.2454 37.3296Z" fill="black"/>
<path d="M120.694 10.6725V22.1507H132.436V24.6166H120.694V36.0951H134.113V38.5605H117.979V8.24731H134.113V10.6725H120.694Z" fill="black"/>
<path d="M173.732 8.24731V38.5602H171.295L152.286 12.8545V38.5605H149.57V8.24731H152.007L171.055 33.9522V8.24731H173.732Z" fill="black"/>
<path d="M190.109 8.24731H198.057C202.027 8.25283 205.833 9.85139 208.641 12.6925C211.449 15.5337 213.028 19.3856 213.034 23.4037C213.028 27.4218 211.449 31.2738 208.641 34.1149C205.833 36.9562 202.027 38.5546 198.057 38.5602H190.109V8.24731ZM198.017 36.0951C199.646 36.1247 201.263 35.8114 202.765 35.1746C204.267 34.5378 205.622 33.5917 206.743 32.3962C207.906 31.2178 208.822 29.8138 209.437 28.2687C210.051 26.7237 210.351 25.0689 210.318 23.4037C210.35 21.7356 210.049 20.0781 209.435 18.5297C208.821 16.9814 207.906 15.5737 206.743 14.3904C205.625 13.1899 204.271 12.2391 202.768 11.5987C201.266 10.9584 199.648 10.6427 198.017 10.6718H192.786V36.0951H198.017Z" fill="black"/>
<path d="M257.604 8.24731V38.5602H254.928V12.3293L242.947 30.477L231.046 12.3293V38.5605H228.331V8.24731H231.166L242.947 25.9905L254.808 8.24731H257.604Z" fill="black"/>
<path d="M293.272 31.9734H277.179L274.664 38.5617H271.707L283.728 8.24878H286.723L298.744 38.5617H295.789L293.272 31.9734ZM292.355 29.6297L285.205 11.118L278.096 29.6297H292.355Z" fill="black"/>
<path d="M332.174 38.5605H329.139L321.75 24.7375H315.56V38.5605H312.843V8.24739H323.267C324.355 8.22763 325.432 8.43451 326.435 8.85515C327.438 9.27579 328.344 9.90115 329.099 10.6922C329.875 11.4629 330.488 12.3853 330.899 13.4034C331.312 14.4215 331.515 15.5138 331.496 16.6138C331.523 18.5844 330.811 20.4921 329.499 21.9488C328.216 23.4309 326.438 24.381 324.507 24.6164L332.174 38.5605ZM323.19 22.4338C323.955 22.4386 324.715 22.2893 325.427 21.9944C326.136 21.6995 326.779 21.265 327.323 20.7161C327.864 20.1671 328.294 19.5147 328.584 18.7965C328.875 18.0784 329.024 17.3089 329.019 16.5327C329.03 15.7596 328.883 14.9925 328.587 14.2796C328.291 13.5666 327.854 12.9231 327.302 12.3896C326.766 11.8362 326.126 11.3986 325.419 11.1033C324.712 10.808 323.952 10.6612 323.19 10.6717H315.56V22.4335L323.19 22.4338Z" fill="black"/>
<path d="M348.909 34.4597C346.146 31.4693 344.656 27.4989 344.757 23.4054C344.653 19.3118 346.146 15.3414 348.909 12.351C350.234 10.8854 351.853 9.72458 353.658 8.94706C355.464 8.16957 357.413 7.79352 359.373 7.8444C362.53 7.81082 365.594 8.93024 368 10.9973V14.3518C366.922 13.1138 365.594 12.1234 364.106 11.4472C362.618 10.771 361.005 10.4245 359.373 10.431C357.749 10.383 356.13 10.6923 354.634 11.3378C353.138 11.9833 351.8 12.9496 350.709 14.1699C348.434 16.686 347.218 19.9977 347.312 23.4054C347.224 26.8 348.44 30.0973 350.709 32.6003C351.824 33.7931 353.168 34.7405 354.661 35.3837C356.154 36.0272 357.762 36.3523 359.384 36.3389C361.008 36.3259 362.61 35.9744 364.09 35.3069C365.573 34.6392 366.904 33.6699 368 32.4589V35.7725C365.6 37.8541 362.536 38.988 359.373 38.9656C357.413 39.0165 355.464 38.6405 353.658 37.8632C351.853 37.0859 350.234 35.9253 348.909 34.4597Z" fill="black"/>
</g>
<defs>
<clipPath id="clip0_506_48349">
<rect width="368" height="48" fill="white"/>
</clipPath>
</defs>
</svg>
