<svg width="138" height="18" viewBox="0 0 138 18" fill="none" xmlns="http://www.w3.org/2000/svg">
<path d="M2.55291 3.95548C4.23271 2.969 6.14027 2.44928 8.0824 2.44895C9.57008 2.45189 11.0421 2.75609 12.4119 3.34363L15.0128 1.6678C12.8609 0.577685 10.4888 0.00684002 8.08245 3.33343e-05C5.22496 -0.00598875 2.42378 0.804053 0.000828971 2.33706C-0.0230917 5.09441 0.470879 7.83125 1.45646 10.402L3.45438 9.11472C2.87434 7.45718 2.56972 5.71381 2.55291 3.95548Z" fill="white"/>
<path d="M13.4191 6.2836C13.1962 7.85669 12.7066 9.37902 11.9719 10.7835C11.094 12.4838 9.74137 13.8852 8.08244 14.8134C6.7769 14.0923 5.66013 13.0665 4.82481 11.8211L2.82227 13.1112C4.09876 15.1987 5.91863 16.8902 8.0823 18.0001C10.5695 16.7122 12.5996 14.6738 13.8916 12.167C15.1115 9.8126 15.8486 7.23294 16.0584 4.58301L13.4191 6.2836Z" fill="white"/>
<path d="M32.3421 13.9986C31.6615 13.641 31.0934 13.0976 30.7021 12.43L31.4207 11.6722C31.679 12.27 32.1272 12.7634 32.6941 13.0742C33.3403 13.4502 34.0752 13.6415 34.8205 13.6275C35.4973 13.6562 36.1666 13.4737 36.7375 13.1046C36.9847 12.93 37.1835 12.694 37.3146 12.4192C37.4457 12.1445 37.5049 11.8402 37.4863 11.5357C37.4903 11.2509 37.4315 10.9688 37.3145 10.7098C37.2145 10.4855 37.0807 10.2784 36.9177 10.0959C36.7171 9.89686 36.487 9.73066 36.2358 9.60332C35.9313 9.43656 35.6769 9.31024 35.4724 9.22438C35.2679 9.13852 34.9759 9.02484 34.5962 8.88333C34.167 8.72191 33.8524 8.59817 33.6524 8.51211C33.4531 8.42632 33.1811 8.28737 32.8365 8.09528C32.5572 7.95205 32.302 7.76536 32.08 7.54202C31.8984 7.3311 31.7495 7.09348 31.6384 6.83729C31.5011 6.53302 31.4321 6.20172 31.4364 5.86724C31.414 5.45337 31.4907 5.04014 31.6601 4.66276C31.8295 4.28538 32.0866 3.95504 32.4094 3.69988C33.1007 3.18067 33.9453 2.91355 34.8058 2.942C35.5104 2.93101 36.2094 3.07049 36.8571 3.35135C37.4217 3.59112 37.924 3.9593 38.3253 4.42731L37.6361 5.13986C37.0272 4.27089 36.0838 3.83645 34.8058 3.83654C34.2137 3.81628 33.6308 3.98896 33.143 4.32916C32.919 4.49668 32.7399 4.71828 32.6222 4.97376C32.5045 5.22924 32.4518 5.51048 32.469 5.79183C32.4647 6.07692 32.5316 6.35848 32.6637 6.61035C32.8133 6.87306 33.0275 7.09218 33.2855 7.24645C33.5377 7.41041 33.8004 7.55728 34.0718 7.68612C34.3114 7.79714 34.646 7.93353 35.0756 8.09528C35.5446 8.27701 35.8814 8.41084 36.0862 8.49677C36.3864 8.63175 36.6789 8.78356 36.9624 8.9515C37.2725 9.1157 37.5554 9.32796 37.8007 9.58059C38.0048 9.82142 38.1716 10.0923 38.2953 10.3839C38.4482 10.7319 38.5249 11.1094 38.5202 11.4903C38.5451 11.9333 38.4633 12.3757 38.282 12.7797C38.1006 13.1836 37.825 13.5369 37.4789 13.8092C36.7013 14.3711 35.7605 14.6538 34.8059 14.6125C33.9462 14.6249 33.0979 14.4135 32.3421 13.9986Z" fill="white"/>
<path d="M45.2605 4.00223V8.30654H49.6636V9.23125H45.2605V13.5357H50.2925V14.4602H44.2422V3.09277H50.2925V4.00223H45.2605Z" fill="white"/>
<path d="M65.1495 3.09277V14.4601H64.2358L57.1074 4.82046V14.4602H56.0889V3.09277H57.0025L64.1458 12.7321V3.09277H65.1495Z" fill="white"/>
<path d="M71.291 3.09277H74.2712C75.7601 3.09484 77.1874 3.6943 78.2403 4.75973C79.2932 5.82516 79.8856 7.26962 79.8878 8.77643C79.8856 10.2832 79.2932 11.7277 78.2403 12.7931C77.1874 13.8586 75.7601 14.458 74.2712 14.4601H71.291V3.09277ZM74.2565 13.5357C74.8672 13.5468 75.4735 13.4293 76.0368 13.1905C76.6002 12.9517 77.1082 12.5969 77.5288 12.1486C77.9649 11.7067 78.3084 11.1802 78.5387 10.6008C78.7691 10.0214 78.8815 9.40087 78.8694 8.77643C78.8811 8.15087 78.7684 7.52931 78.5381 6.94868C78.3078 6.36804 77.9646 5.84017 77.5288 5.39641C77.1093 4.94624 76.6016 4.58968 76.0381 4.34955C75.4746 4.10943 74.8678 3.99103 74.2565 4.00195H72.2947V13.5357H74.2565Z" fill="white"/>
<path d="M96.6017 3.09277V14.4601H95.598V4.62351L91.1053 11.4289L86.6424 4.62351V14.4602H85.624V3.09277H86.6872L91.1053 9.74647L95.5532 3.09277H96.6017Z" fill="white"/>
<path d="M109.977 11.99H103.942L102.999 14.4606H101.89L106.398 3.09326H107.521L112.029 14.4606H110.921L109.977 11.99ZM109.633 11.1111L106.952 4.16922L104.286 11.1111H109.633Z" fill="white"/>
<path d="M124.565 14.4602H123.427L120.656 9.27658H118.335V14.4602H117.316V3.09277H121.225C121.633 3.08536 122.037 3.16294 122.413 3.32068C122.789 3.47842 123.129 3.71293 123.412 4.00957C123.703 4.29857 123.933 4.6445 124.087 5.02628C124.242 5.40806 124.318 5.81768 124.311 6.23017C124.321 6.96914 124.054 7.68452 123.562 8.23079C123.081 8.78658 122.414 9.14287 121.69 9.23115L124.565 14.4602ZM121.196 8.41269C121.483 8.41449 121.768 8.35847 122.035 8.24789C122.301 8.13732 122.542 7.97437 122.746 7.76852C122.949 7.56267 123.11 7.318 123.219 7.0487C123.328 6.77941 123.384 6.49085 123.382 6.19976C123.386 5.90986 123.331 5.6222 123.22 5.35484C123.109 5.08747 122.945 4.84618 122.738 4.6461C122.537 4.43859 122.297 4.27448 122.032 4.16374C121.767 4.053 121.482 3.99794 121.196 4.0019H118.335V8.41255L121.196 8.41269Z" fill="white"/>
<path d="M130.841 12.9224C129.805 11.801 129.246 10.3121 129.284 8.77702C129.245 7.24194 129.805 5.75303 130.841 4.63163C131.338 4.08203 131.945 3.64672 132.622 3.35515C133.299 3.06359 134.03 2.92257 134.765 2.94165C135.949 2.92906 137.098 3.34884 138 4.12399V5.38194C137.596 4.91767 137.098 4.54629 136.54 4.2927C135.982 4.03912 135.377 3.9092 134.765 3.91164C134.156 3.89362 133.549 4.00963 132.988 4.25169C132.427 4.49375 131.925 4.8561 131.516 5.31373C130.663 6.25726 130.207 7.49915 130.242 8.77702C130.209 10.05 130.665 11.2865 131.516 12.2251C131.934 12.6724 132.438 13.0277 132.998 13.2689C133.558 13.5102 134.161 13.6321 134.769 13.6271C135.378 13.6222 135.979 13.4904 136.534 13.2401C137.09 12.9897 137.589 12.6262 138 12.1721V13.4147C137.1 14.1953 135.951 14.6205 134.765 14.6121C134.03 14.6312 133.299 14.4902 132.622 14.1987C131.945 13.9072 131.338 13.472 130.841 12.9224Z" fill="white"/>
</svg>
