<svg width="50" height="50" viewBox="0 0 50 50" fill="none" xmlns="http://www.w3.org/2000/svg">
    <path opacity=".4" d="m35.975 17.836-8.887 7.154a4.631 4.631 0 0 1-5.72 0l-8.963-7.154" stroke="#fff" stroke-width="2.5" stroke-linecap="round" stroke-linejoin="round"/>
    <path clip-rule="evenodd" d="M14.35 6.25H33.99a10.327 10.327 0 0 1 7.46 3.313 10.452 10.452 0 0 1 2.761 7.716v13.6a10.452 10.452 0 0 1-2.762 7.717 10.327 10.327 0 0 1-7.459 3.313H14.35c-6.083 0-10.183-4.95-10.183-11.03v-13.6c0-6.08 4.1-11.029 10.183-11.029z" stroke="#fff" stroke-width="2.5" stroke-linecap="round" stroke-linejoin="round"/>
</svg>
