<svg width="50" height="50" viewBox="0 0 50 50" fill="none" xmlns="http://www.w3.org/2000/svg">
    <path d="M15.97 6.98h18.06c2.847 0 5.063.996 6.573 2.618 1.52 1.631 2.419 3.999 2.419 6.894v17.017c0 2.895-.9 5.262-2.419 6.894-1.51 1.622-3.727 2.618-6.575 2.618H15.97c-2.848 0-5.063-.996-6.572-2.618-1.52-1.632-2.418-4-2.418-6.894V16.492c0-2.894.902-5.261 2.424-6.894 1.513-1.623 3.728-2.619 6.566-2.619z" stroke="#fff" stroke-width="2.5" stroke-linecap="round" stroke-linejoin="round"/>
    <path opacity=".4" d="m17.583 25 4.946 4.944 9.887-9.887" stroke="#fff" stroke-width="2.5" stroke-linecap="round" stroke-linejoin="round"/>
</svg>
