<svg width="50" height="50" viewBox="0 0 50 50" fill="none" xmlns="http://www.w3.org/2000/svg">
    <path clip-rule="evenodd" d="M39.302 10.675a2.268 2.268 0 0 1 1.519 2.141v14.11c0 3.944-1.434 7.709-3.965 10.626-1.273 1.468-2.883 2.612-4.594 3.537l-7.412 4.004-7.425-4.006c-1.713-.925-3.325-2.067-4.6-3.537a16.215 16.215 0 0 1-3.971-10.632V12.816c0-.964.608-1.823 1.519-2.141l13.712-4.82a2.271 2.271 0 0 1 1.504 0l13.713 4.82z" stroke="#fff" stroke-width="2.5" stroke-linecap="round" stroke-linejoin="round"/>
    <path opacity=".4" d="m19.422 24.829 3.941 3.943 8.121-8.12" stroke="#fff" stroke-width="2.5" stroke-linecap="round" stroke-linejoin="round"/>
</svg>
