<svg width="11" height="10" viewBox="0 0 11 10" fill="none" xmlns="http://www.w3.org/2000/svg">
<path fill-rule="evenodd" clip-rule="evenodd" d="M10.9665 1.69283C10.5743 1.86679 10.1519 1.98442 9.70954 2.03766C10.1614 1.7665 10.5084 1.33809 10.6715 0.827337C10.2486 1.07807 9.78045 1.26008 9.28157 1.3579C8.88246 0.932583 8.31392 0.666992 7.68452 0.666992C6.4759 0.666992 5.49571 1.6464 5.49571 2.85486C5.49571 3.02697 5.51579 3.19351 5.55281 3.35385C3.73425 3.26284 2.12214 2.39116 1.04279 1.06754C0.853909 1.39071 0.746602 1.7665 0.746602 2.16767C0.746602 2.92668 1.13316 3.59653 1.71989 3.98842C1.36095 3.97728 1.02334 3.87884 0.729032 3.71478C0.729032 3.72407 0.729032 3.73335 0.729032 3.74264C0.729032 4.80253 1.48269 5.68659 2.48422 5.88779C2.30035 5.93794 2.1077 5.96456 1.90752 5.96456C1.76696 5.96456 1.62953 5.95094 1.49587 5.92494C1.77449 6.79414 2.58274 7.42686 3.54034 7.44481C2.79108 8.03109 1.84728 8.38088 0.821905 8.38088C0.645571 8.38088 0.471119 8.37097 0.299805 8.35054C1.26808 8.97149 2.41833 9.33366 3.65455 9.33366C7.6795 9.33366 9.88085 5.99985 9.88085 3.10869C9.88085 3.01335 9.87834 2.91987 9.87458 2.82577C10.3019 2.51746 10.6734 2.13176 10.9665 1.69345V1.69283V1.69283Z" fill="white"/>
</svg>
