<svg width="12" height="10" viewBox="0 0 12 10" fill="none" xmlns="http://www.w3.org/2000/svg">
<path fill-rule="evenodd" clip-rule="evenodd" d="M11.4 1.03301C11.7517 1.43603 11.8759 2.34816 11.8759 2.34816C11.8759 2.34816 12 3.42998 12 4.51178V5.50876C12 6.56937 11.8759 7.65119 11.8759 7.65119C11.8759 7.65119 11.7517 8.56332 11.4 8.96634C10.9671 9.45048 10.4781 9.49339 10.2355 9.51469C10.223 9.51578 10.2112 9.51682 10.2 9.51786C8.52415 9.66634 6 9.66634 6 9.66634C6 9.66634 2.87585 9.64512 1.92415 9.53911C1.87358 9.52714 1.8113 9.51817 1.74048 9.50797C1.43467 9.46393 0.969595 9.39696 0.6 8.96637C0.248297 8.56335 0.124148 7.65122 0.124148 7.65122C0.124148 7.65122 0 6.59061 0 5.50878V4.51181C0 3.42998 0.124148 2.34816 0.124148 2.34816C0.124148 2.34816 0.227578 1.43605 0.6 1.03301C1.03287 0.548869 1.52188 0.505954 1.7645 0.484662C1.777 0.483565 1.78885 0.482525 1.8 0.481485C3.47585 0.354226 6 0.333008 6 0.333008C6 0.333008 8.52415 0.354226 10.2 0.481485C10.2173 0.483096 10.2362 0.484585 10.2567 0.486193C10.5058 0.50576 10.9794 0.542968 11.4 1.03301ZM4.55161 7.46046V2.85742L8.48264 5.21199L4.55161 7.46046Z" fill="white"/>
</svg>
