<svg width="24" height="25" viewBox="0 0 24 25" fill="none" xmlns="http://www.w3.org/2000/svg">
    <path opacity=".4" fill-rule="evenodd" clip-rule="evenodd" d="M10.132 9.563a.75.75 0 1 0-1.06 1.06l1.867 1.868-1.865 1.866a.75.75 0 0 0 1.06 1.06L12 13.552l1.868 1.868a.75.75 0 1 0 1.06-1.06L13.06 12.49l1.866-1.866a.75.75 0 1 0-1.06-1.06L12 11.43l-1.868-1.868z" fill="#fff"/>
    <path clip-rule="evenodd" d="M16.335 3.25H7.666c-3.021 0-4.915 2.139-4.915 5.166v8.168c0 3.027 1.885 5.166 4.915 5.166h8.668c3.031 0 4.917-2.139 4.917-5.166V8.416c0-3.027-1.886-5.166-4.916-5.166z" stroke="#fff" stroke-width="1.5" stroke-linecap="round" stroke-linejoin="round"/>
</svg>
