<svg width="16" height="16" viewBox="0 0 16 16" fill="none" xmlns="http://www.w3.org/2000/svg">
    <path d="M13.879 3.077a.82.82 0 0 0-.168 0H2.223a.821.821 0 0 0-.217.033l5.928 5.903 5.945-5.936z" fill="#fff"/>
    <path d="M14.485 3.647 8.512 9.596a.82.82 0 0 1-1.157 0l-5.92-5.904a.82.82 0 0 0-.029.205v8.206a.82.82 0 0 0 .82.82h11.488a.82.82 0 0 0 .82-.82V3.896a.82.82 0 0 0-.049-.25zM2.79 12.102h-.57v-.586L5.2 8.558l.579.578-2.991 2.966zm10.917 0h-.575l-2.99-2.966.578-.578 2.983 2.958.004.586z" fill="#fff"/>
</svg>
