<svg width="14" height="12" viewBox="0 0 14 12" fill="none" xmlns="http://www.w3.org/2000/svg">
    <path fill-rule="evenodd" clip-rule="evenodd" d="M13.566 1.93a5.403 5.403 0 0 1-1.547.425 2.701 2.701 0 0 0 1.184-1.49 5.382 5.382 0 0 1-1.711.654 2.693 2.693 0 0 0-4.59 2.457 7.646 7.646 0 0 1-5.55-2.815 2.691 2.691 0 0 0 .833 3.595 2.671 2.671 0 0 1-1.22-.337v.035c0 1.304.928 2.392 2.161 2.64a2.69 2.69 0 0 1-1.216.046 2.697 2.697 0 0 0 2.516 1.87 5.41 5.41 0 0 1-3.989 1.115 7.621 7.621 0 0 0 4.13 1.21c4.953 0 7.663-4.103 7.663-7.662 0-.117-.004-.232-.008-.348.526-.38.983-.854 1.344-1.393V1.93z" fill="#fff"/>
</svg>
