<?xml version="1.0" encoding="utf-8"?>
<!-- Generator: Adobe Illustrator 23.0.1, SVG Export Plug-In . SVG Version: 6.00 Build 0)  -->
<svg version="1.1" id="Layer_1" xmlns="http://www.w3.org/2000/svg" xmlns:xlink="http://www.w3.org/1999/xlink" x="0px" y="0px"
	 viewBox="0 0 26 26" style="enable-background:new 0 0 26 26;" xml:space="preserve">
<style type="text/css">
	.st0{fill:#292929;}
	.st1{fill-rule:evenodd;clip-rule:evenodd;fill:#FFFFFF;}
</style>
<g>
	<circle class="st0" cx="13" cy="13" r="13"/>
	<path class="st1" d="M10.4,11.1H8.5v6.2h1.9V11.1z M10.6,9.1c0-0.6-0.5-1.1-1.1-1.2S8.4,8.4,8.3,9.1c0,0,0,0,0,0.1
		c0,0.6,0.5,1.1,1.1,1.2S10.6,9.8,10.6,9.1C10.6,9.2,10.6,9.2,10.6,9.1L10.6,9.1z M13.5,11.1h-1.9v6.2h1.9v-3.1
		c0-0.8,0.2-1.6,1.2-1.6c1,0,1,0.9,1,1.7v3h1.9v-3.4c0-1.7-0.4-3-2.3-3c-0.9,0-1.6,0.5-1.8,1h0C13.5,12,13.5,11.1,13.5,11.1z"/>
</g>
</svg>
