<?xml version="1.0" encoding="utf-8"?>
<!-- Generator: Adobe Illustrator 23.0.1, SVG Export Plug-In . SVG Version: 6.00 Build 0)  -->
<svg version="1.1" id="Layer_1" xmlns="http://www.w3.org/2000/svg" xmlns:xlink="http://www.w3.org/1999/xlink" x="0px" y="0px"
	 viewBox="0 0 26 26" style="enable-background:new 0 0 26 26;" xml:space="preserve">
<style type="text/css">
	.st0{fill:#292929;}
	.st1{fill:#FFFFFF;}
</style>
<g>
	<circle class="st0" cx="13" cy="13" r="13"/>
	<path class="st1" d="M17.8,9c0,0-0.1,0-0.1,0H8.3C8.2,9,8.2,9,8.1,9l4.8,4.8L17.8,9L17.8,9z"/>
	<path class="st1" d="M18.3,9.5l-4.9,4.8c-0.3,0.3-0.7,0.3-0.9,0L7.7,9.5c0,0.1,0,0.1,0,0.2v6.7c0,0.4,0.3,0.7,0.7,0.7h9.3
		c0.4,0,0.7-0.3,0.7-0.7V9.7C18.3,9.6,18.3,9.5,18.3,9.5z M8.8,16.3H8.3v-0.5l2.4-2.4l0.5,0.5L8.8,16.3z M17.6,16.3h-0.5l-2.4-2.4
		l0.5-0.5l2.4,2.4L17.6,16.3z"/>
</g>
</svg>
