<?xml version="1.0" encoding="utf-8"?>
<!-- Generator: Adobe Illustrator 23.0.1, SVG Export Plug-In . SVG Version: 6.00 Build 0)  -->
<svg version="1.1" id="Layer_1" xmlns="http://www.w3.org/2000/svg" xmlns:xlink="http://www.w3.org/1999/xlink" x="0px" y="0px"
	 viewBox="0 0 26 26" style="enable-background:new 0 0 26 26;" xml:space="preserve">
<style type="text/css">
	.st0{fill:#292929;}
	.st1{fill-rule:evenodd;clip-rule:evenodd;fill:#FFFFFF;}
</style>
<g>
	<circle class="st0" cx="13" cy="13" r="13"/>
	<path class="st1" d="M18.3,9.7c-0.4,0.2-0.8,0.3-1.3,0.3c0.5-0.3,0.8-0.7,1-1.2c-0.4,0.3-0.9,0.4-1.4,0.5c-0.8-0.9-2.2-0.9-3.1-0.1
		c-0.6,0.5-0.8,1.3-0.6,2.1c-1.8-0.1-3.4-0.9-4.5-2.3c-0.6,1-0.3,2.3,0.7,2.9c-0.3,0-0.7-0.1-1-0.3v0c0,1.1,0.8,1.9,1.8,2.1
		c-0.3,0.1-0.7,0.1-1,0c0.3,0.9,1.1,1.5,2,1.5c-0.9,0.7-2.1,1-3.2,0.9c1,0.6,2.2,1,3.4,1c4,0,6.2-3.3,6.2-6.2c0-0.1,0-0.2,0-0.3
		C17.7,10.5,18,10.1,18.3,9.7z"/>
</g>
</svg>
