<svg width="158" height="49" viewBox="0 0 158 49" fill="none" xmlns="http://www.w3.org/2000/svg">
    <path d="M65.553 3.504h.86v9.055h-.86V3.504zM68.658 6.01h.809V7.13h.026c.156-.391.417-.704.809-.965A2.43 2.43 0 0 1 71.58 5.8c.444 0 .836.052 1.149.183.313.13.548.287.73.496.183.209.314.47.392.783.078.313.104.652.104 1.044v4.201h-.809v-4.07c0-.288-.026-.549-.078-.784a1.678 1.678 0 0 0-.261-.626 1.2 1.2 0 0 0-.522-.418c-.209-.104-.496-.156-.809-.156-.313 0-.6.052-.861.182-.261.105-.47.261-.626.47a2.397 2.397 0 0 0-.575 1.592v3.81h-.808V6.01h.052zM77.245 6.01h1.331v.678h-1.33v4.41c0 .261.025.47.103.626.079.157.261.235.548.235.235 0 .444 0 .679-.026v.679h-.365c-.13 0-.235.026-.366.026-.522 0-.913-.105-1.122-.313-.209-.21-.313-.6-.313-1.149V6.714h-1.148v-.679h1.148V4.078h.809V6.01h.026zM80.713 9.48c0 .287.053.574.13.887.08.313.21.574.392.835.183.235.392.444.679.6.26.157.6.235.965.235.574 0 1.044-.156 1.357-.443.34-.313.548-.705.679-1.227h.809c-.157.73-.47 1.305-.94 1.723-.443.417-1.096.6-1.93.6-.523 0-.966-.079-1.332-.261a2.586 2.586 0 0 1-.913-.757 3.048 3.048 0 0 1-.522-1.096 5.462 5.462 0 0 1-.183-1.33c0-.445.053-.862.183-1.28.104-.417.287-.783.522-1.096.235-.313.548-.574.913-.783.366-.208.81-.287 1.331-.287.522 0 .966.105 1.331.313.365.21.679.496.913.836.235.339.392.73.496 1.174.105.444.157.887.13 1.357h-5.01zm4.228-.652c0-.314-.052-.6-.157-.862a2.229 2.229 0 0 0-.417-.73 2.135 2.135 0 0 0-.653-.522 1.936 1.936 0 0 0-1.748 0c-.261.13-.47.313-.652.522a2.36 2.36 0 0 0-.418.756 3.453 3.453 0 0 0-.209.862h4.254v-.026zM87.318 6.01h.731v1.539h.026c.209-.522.522-.94.94-1.227.417-.287.94-.417 1.54-.391v.809a2.041 2.041 0 0 0-.992.157 2.119 2.119 0 0 0-.757.495 2.12 2.12 0 0 0-.496.757c-.13.287-.183.6-.183.966v3.497h-.809V6.009zM91.779 6.01h.809V7.13h.026c.156-.391.417-.704.809-.965a2.43 2.43 0 0 1 1.279-.366c.443 0 .835.052 1.148.183.313.13.548.287.73.496.183.209.314.47.392.783.078.313.104.652.104 1.044v4.201h-.809v-4.07c0-.288-.026-.549-.078-.784a1.678 1.678 0 0 0-.26-.626 1.201 1.201 0 0 0-.523-.418c-.209-.104-.496-.156-.809-.156-.313 0-.6.052-.861.182-.261.105-.47.261-.626.47a2.397 2.397 0 0 0-.574 1.592v3.81h-.81V6.01h.053zM99.034 8.019c.026-.392.104-.705.235-.992.13-.287.313-.496.548-.678a2.13 2.13 0 0 1 .809-.392c.313-.078.652-.13 1.044-.13.287 0 .574.026.861.078.287.052.548.157.783.313.235.157.417.365.548.653.156.287.209.626.209 1.07v3.47c0 .314.156.47.469.47.105 0 .183-.026.261-.052v.678c-.104.027-.182.027-.235.027h-.261c-.208 0-.365-.027-.495-.079a.642.642 0 0 1-.288-.235c-.078-.104-.104-.235-.13-.365-.026-.13-.026-.287-.026-.47h-.026c-.157.209-.287.392-.444.574-.156.157-.313.314-.496.418a3.449 3.449 0 0 1-.626.26 3.783 3.783 0 0 1-.835.08c-.313 0-.6-.027-.861-.105a2.204 2.204 0 0 1-.705-.34 1.508 1.508 0 0 1-.47-.6 2.1 2.1 0 0 1-.182-.86c0-.444.104-.81.313-1.07.209-.262.47-.445.809-.601.339-.13.704-.235 1.122-.287.418-.052.835-.105 1.279-.157.156-.026.313-.026.443-.052a.877.877 0 0 0 .314-.13.71.71 0 0 0 .208-.261c.053-.105.079-.261.079-.444 0-.261-.053-.496-.131-.652a1.119 1.119 0 0 0-.365-.418 1.267 1.267 0 0 0-.548-.209 5.142 5.142 0 0 0-.679-.052c-.496 0-.913.13-1.252.365-.314.235-.496.627-.496 1.149h-.783v.026zm4.254.965c-.079.105-.183.157-.314.21a1.154 1.154 0 0 1-.391.077c-.339.053-.679.105-1.044.157-.365.052-.678.104-.992.209-.287.104-.548.235-.73.391a.982.982 0 0 0-.287.73c0 .21.052.392.13.549.079.156.183.287.313.418.131.104.287.208.47.26.183.053.365.079.548.079.313 0 .6-.052.887-.13.287-.105.522-.236.731-.418.209-.183.365-.392.496-.653.13-.26.183-.548.183-.86V8.983zM107.515 6.01h1.331v.678h-1.331v4.41c0 .261.026.47.104.626.078.157.261.235.548.235.235 0 .444 0 .679-.026v.679h-.366c-.13 0-.235.026-.365.026-.522 0-.914-.105-1.122-.313-.209-.21-.314-.6-.314-1.149V6.714h-1.148v-.679h1.148V4.078h.809V6.01h.027zM110.518 3.504h.809v1.279h-.809v-1.28zm0 2.505h.809v6.55h-.809V6.01zM116.129 5.827c.496 0 .939.104 1.331.287.391.182.704.443.965.757.261.313.47.678.601 1.096.13.417.208.86.208 1.33 0 .47-.078.914-.208 1.331-.131.418-.34.783-.601 1.097a2.71 2.71 0 0 1-.965.73c-.392.183-.835.261-1.331.261s-.94-.078-1.331-.26a2.713 2.713 0 0 1-.966-.731 3.2 3.2 0 0 1-.6-1.097 4.455 4.455 0 0 1-.209-1.33c0-.47.079-.914.209-1.331a3.2 3.2 0 0 1 .6-1.096c.261-.314.575-.575.966-.757.391-.209.835-.287 1.331-.287zm0 .652a1.99 1.99 0 0 0-.992.235 2.03 2.03 0 0 0-.704.626c-.183.261-.34.548-.444.888-.104.339-.157.678-.157 1.017 0 .34.053.679.157 1.018.104.34.235.626.444.887.182.261.417.47.704.627.287.156.627.235.992.235a1.993 1.993 0 0 0 1.696-.862 3.15 3.15 0 0 0 .444-.887c.104-.34.156-.678.156-1.018 0-.339-.052-.678-.156-1.017-.105-.34-.235-.627-.444-.888a1.993 1.993 0 0 0-1.696-.861zM120.904 6.01h.809V7.13h.026c.156-.391.417-.704.809-.965a2.429 2.429 0 0 1 1.279-.366c.443 0 .835.052 1.148.183.313.13.548.287.731.496.182.209.313.47.391.783.078.313.104.652.104 1.044v4.201h-.809v-4.07c0-.288-.026-.549-.078-.784a1.667 1.667 0 0 0-.261-.626 1.198 1.198 0 0 0-.522-.418c-.209-.104-.496-.156-.809-.156-.313 0-.6.052-.861.182a1.42 1.42 0 0 0-.626.47 2.405 2.405 0 0 0-.418.705 2.55 2.55 0 0 0-.156.887v3.81h-.809V6.01h.052zM128.157 8.019c.026-.392.104-.705.235-.992a1.75 1.75 0 0 1 .548-.678c.235-.183.496-.314.809-.392.313-.078.652-.13 1.044-.13.287 0 .574.026.861.078.287.052.548.157.783.313.235.157.417.365.548.653.156.287.209.626.209 1.07v3.47c0 .314.156.47.469.47.105 0 .183-.026.261-.052v.678c-.104.027-.182.027-.235.027h-.261c-.208 0-.365-.027-.495-.079a.634.634 0 0 1-.287-.235c-.079-.104-.105-.235-.131-.365-.026-.13-.026-.287-.026-.47h-.026c-.157.209-.287.392-.444.574-.156.157-.313.314-.496.418a3.449 3.449 0 0 1-.626.26 3.783 3.783 0 0 1-.835.08c-.313 0-.6-.027-.861-.105a2.209 2.209 0 0 1-.705-.34 1.513 1.513 0 0 1-.47-.6 2.107 2.107 0 0 1-.182-.86c0-.444.104-.81.313-1.07.209-.262.47-.445.809-.601.339-.13.705-.235 1.122-.287.418-.052.835-.105 1.279-.157.156-.026.313-.026.443-.052a.877.877 0 0 0 .314-.13.71.71 0 0 0 .208-.261c.053-.105.079-.261.079-.444 0-.261-.053-.496-.131-.652a.95.95 0 0 0-.365-.418 1.267 1.267 0 0 0-.548-.209 5.142 5.142 0 0 0-.679-.052c-.496 0-.913.13-1.252.365-.34.235-.496.627-.496 1.149h-.783v.026zm4.254.965c-.079.105-.183.157-.313.21a1.16 1.16 0 0 1-.392.077c-.339.053-.678.105-1.044.157-.365.052-.678.104-.991.209-.288.104-.549.235-.731.391a.98.98 0 0 0-.287.73c0 .21.052.392.13.549.079.156.183.287.313.418.131.104.287.208.47.26.183.053.365.079.548.079.313 0 .6-.052.887-.13.288-.105.522-.236.731-.418a2.05 2.05 0 0 0 .496-.653c.13-.26.183-.548.183-.86V8.983zM135.309 3.504h.809v9.055h-.809V3.504zM65.498 20.388h6.237v.73H66.36v3.263h5.037v.73h-5.037v3.576h5.454v.73h-6.315v-9.029zM73.379 20.388h.809v9.056h-.81v-9.056zM76.694 26.39c0 .288.052.575.13.888.079.313.209.574.392.835.182.235.391.444.678.6.261.157.6.235.966.235.574 0 1.044-.157 1.357-.444.34-.313.548-.704.678-1.226h.81c-.157.73-.47 1.305-.94 1.722-.444.418-1.096.6-1.931.6-.522 0-.966-.078-1.331-.26a2.587 2.587 0 0 1-.914-.757 3.048 3.048 0 0 1-.522-1.096 5.466 5.466 0 0 1-.182-1.331c0-.444.052-.861.182-1.279.105-.418.288-.783.522-1.096.235-.313.548-.574.914-.783.365-.209.809-.287 1.33-.287.523 0 .966.104 1.332.313.365.209.678.496.913.835.235.34.391.73.496 1.174.104.444.156.888.13 1.358h-5.01zm4.227-.678c0-.313-.052-.6-.156-.861a2.227 2.227 0 0 0-.418-.73 2.136 2.136 0 0 0-.652-.523 1.935 1.935 0 0 0-1.749 0c-.26.13-.47.313-.652.522-.183.209-.313.47-.418.757a3.452 3.452 0 0 0-.208.861h4.253v-.026zM87.915 24.955c-.104-.496-.313-.887-.6-1.148-.287-.261-.704-.418-1.252-.418a1.99 1.99 0 0 0-.992.235 2.037 2.037 0 0 0-.705.627c-.182.26-.339.548-.443.887-.105.34-.157.678-.157 1.018 0 .339.052.678.157 1.017.104.34.234.627.443.888.183.26.418.47.705.626.287.157.626.235.992.235.234 0 .47-.052.704-.13.209-.105.418-.21.574-.392a2.05 2.05 0 0 0 .418-.6c.104-.235.183-.47.209-.757h.809c-.105.783-.392 1.41-.888 1.853-.47.443-1.07.652-1.826.652-.496 0-.94-.078-1.331-.26a2.706 2.706 0 0 1-.966-.732 3.194 3.194 0 0 1-.6-1.096 4.44 4.44 0 0 1-.209-1.33c0-.47.078-.914.209-1.331.13-.418.34-.783.6-1.096.261-.314.574-.575.966-.757a3.114 3.114 0 0 1 1.33-.287c.705 0 1.305.182 1.775.548.496.365.783.94.861 1.696h-.783v.052zM91.645 22.893h1.331v.679h-1.33v4.41c0 .261.025.47.104.627.078.156.26.234.548.234.235 0 .444 0 .678-.026v.679h-.365c-.13 0-.235.026-.365.026-.522 0-.914-.104-1.122-.313-.21-.209-.314-.6-.314-1.148v-4.463h-1.148v-.678h1.148v-1.984h.81v1.957h.025zM94.621 22.894h.73v1.54h.027c.209-.523.522-.94.94-1.227.417-.287.939-.418 1.54-.392v.81a2.043 2.043 0 0 0-.993.156 2.12 2.12 0 0 0-.756.496 2.12 2.12 0 0 0-.496.756c-.13.287-.183.6-.183.966v3.497h-.809v-6.602zM101.902 22.71c.496 0 .94.105 1.331.288.392.183.705.444.966.757s.47.678.6 1.096c.131.417.209.861.209 1.33 0 .47-.078.914-.209 1.332-.13.417-.339.783-.6 1.096a2.706 2.706 0 0 1-.966.73c-.391.183-.835.261-1.331.261-.495 0-.939-.078-1.331-.26a2.71 2.71 0 0 1-.965-.731 3.19 3.19 0 0 1-.6-1.096 4.44 4.44 0 0 1-.21-1.331c0-.47.08-.914.21-1.331.13-.418.339-.783.6-1.096.26-.313.574-.574.965-.757a3.032 3.032 0 0 1 1.331-.287zm0 .68a1.99 1.99 0 0 0-.991.234 2.043 2.043 0 0 0-.705.627 3.13 3.13 0 0 0-.444.887c-.104.34-.156.678-.156 1.018 0 .339.052.678.157 1.018.104.339.234.626.443.887.183.26.418.47.705.626.287.157.626.235.991.235.392 0 .705-.078.992-.235.287-.157.522-.365.705-.626.182-.261.339-.548.443-.887.105-.34.157-.68.157-1.018 0-.34-.052-.679-.157-1.018a2.585 2.585 0 0 0-.443-.887c-.209-.261-.418-.47-.705-.627a2.06 2.06 0 0 0-.992-.234zM107.931 22.893h1.331v.679h-1.331v4.41c0 .261.026.47.104.627.078.156.261.234.548.234.235 0 .444 0 .679-.026v.679h-.366c-.13 0-.235.026-.365.026-.522 0-.914-.104-1.122-.313-.209-.209-.313-.6-.313-1.148v-4.463h-1.149v-.678h1.149v-1.984h.809v1.957h.026zM111.403 26.39c0 .288.052.575.13.888.079.313.209.574.392.835.182.235.391.444.678.6.261.157.6.235.966.235.574 0 1.044-.157 1.357-.444.339-.313.548-.704.678-1.226h.809c-.156.73-.469 1.305-.939 1.722-.444.418-1.096.6-1.931.6-.522 0-.966-.078-1.331-.26a2.585 2.585 0 0 1-.914-.757 3.057 3.057 0 0 1-.522-1.096 5.48 5.48 0 0 1-.182-1.331c0-.444.052-.861.182-1.279.105-.418.287-.783.522-1.096.235-.313.548-.574.914-.783.365-.209.809-.287 1.331-.287.522 0 .965.104 1.331.313.365.209.678.496.913.835.235.34.391.73.496 1.174.104.444.156.888.13 1.358h-5.01zm4.227-.678c0-.313-.052-.6-.156-.861a2.234 2.234 0 0 0-.418-.73 2.125 2.125 0 0 0-.652-.523 1.936 1.936 0 0 0-1.749 0c-.261.13-.469.313-.652.522-.183.209-.313.47-.418.757a3.464 3.464 0 0 0-.208.861h4.253v-.026zM122.622 24.955c-.104-.496-.313-.887-.6-1.148-.287-.261-.704-.418-1.252-.418a1.99 1.99 0 0 0-.992.235 2.041 2.041 0 0 0-.705.627 3.147 3.147 0 0 0-.443.887c-.105.34-.157.678-.157 1.018 0 .339.052.678.157 1.017.104.34.235.627.443.888.183.26.418.47.705.626.287.157.626.235.992.235.234 0 .469-.052.704-.13.209-.105.418-.21.574-.392.157-.157.313-.365.418-.6.104-.235.183-.47.209-.757h.809c-.105.783-.392 1.41-.888 1.853-.469.443-1.07.652-1.826.652-.496 0-.94-.078-1.331-.26a2.703 2.703 0 0 1-.966-.732 3.183 3.183 0 0 1-.6-1.096 4.425 4.425 0 0 1-.209-1.33c0-.47.078-.914.209-1.331.13-.418.339-.783.6-1.096.261-.314.574-.575.966-.757a3.113 3.113 0 0 1 1.331-.287c.704 0 1.304.182 1.774.548.496.365.783.94.861 1.696h-.783v.052zM125.078 20.388h.809v3.628h.026c.156-.392.417-.705.809-.966a2.429 2.429 0 0 1 1.278-.365c.444 0 .835.052 1.149.182.313.13.548.287.73.496.183.209.314.47.392.783.078.313.104.652.104 1.044v4.201h-.809v-4.018a3.63 3.63 0 0 0-.078-.783 1.684 1.684 0 0 0-.261-.627 1.203 1.203 0 0 0-.522-.417c-.209-.104-.496-.157-.809-.157-.313 0-.6.053-.861.183a1.42 1.42 0 0 0-.626.47 2.385 2.385 0 0 0-.575 1.592v3.81h-.809v-9.056h.053zM132.384 22.893h.809v1.122h.026c.157-.391.418-.704.809-.965a2.432 2.432 0 0 1 1.279-.365c.444 0 .835.052 1.148.182.313.13.548.287.731.496.183.209.313.47.391.783.079.313.105.652.105 1.044v4.201h-.809v-4.018a3.63 3.63 0 0 0-.078-.783 1.7 1.7 0 0 0-.261-.627 1.202 1.202 0 0 0-.522-.417c-.209-.105-.496-.157-.809-.157-.314 0-.601.052-.862.183a1.43 1.43 0 0 0-.626.47 2.38 2.38 0 0 0-.417.704 2.528 2.528 0 0 0-.157.888v3.81h-.809v-6.55h.052zM139.717 20.388h.809v1.279h-.809v-1.279zm0 2.505h.809v6.55h-.809v-6.55zM147.181 24.955c-.104-.496-.313-.887-.6-1.148-.287-.261-.705-.418-1.253-.418a1.996 1.996 0 0 0-1.696.862 3.149 3.149 0 0 0-.444.887c-.104.34-.156.678-.156 1.018 0 .339.052.678.156 1.017.105.34.235.627.444.888.183.26.417.47.704.626.288.157.627.235.992.235.235 0 .47-.052.705-.13.209-.105.417-.21.574-.392a2.05 2.05 0 0 0 .417-.6c.105-.235.183-.47.209-.757h.809c-.104.783-.391 1.41-.887 1.853-.47.443-1.07.652-1.827.652-.496 0-.939-.078-1.331-.26a2.708 2.708 0 0 1-.965-.732 3.202 3.202 0 0 1-.601-1.096 4.456 4.456 0 0 1-.208-1.33c0-.47.078-.914.208-1.331.131-.418.34-.783.601-1.096.261-.314.574-.575.965-.757a3.116 3.116 0 0 1 1.331-.287c.705 0 1.305.182 1.775.548.496.365.783.94.861 1.696h-.783v.052zM149.581 24.903c.026-.391.104-.705.235-.992.13-.287.313-.495.548-.678a2.12 2.12 0 0 1 .809-.392c.313-.078.652-.13 1.043-.13.288 0 .575.026.862.078.287.052.548.157.783.313.234.157.417.366.548.653.156.287.208.626.208 1.07v3.47c0 .314.157.47.47.47a.768.768 0 0 0 .261-.052v.679c-.104.026-.183.026-.235.026h-.261c-.209 0-.365-.026-.496-.078a.644.644 0 0 1-.287-.235c-.078-.105-.104-.235-.13-.366-.026-.13-.026-.287-.026-.47h-.026c-.157.21-.287.392-.444.575-.157.156-.313.313-.496.417a3.449 3.449 0 0 1-.626.261 3.79 3.79 0 0 1-.835.078 3 3 0 0 1-.861-.104 2.209 2.209 0 0 1-.705-.34 1.513 1.513 0 0 1-.47-.6 2.108 2.108 0 0 1-.182-.86c0-.444.104-.81.313-1.07.209-.262.469-.444.809-.6.339-.131.704-.236 1.122-.288.417-.052.835-.104 1.279-.156.156-.027.313-.027.443-.053a.864.864 0 0 0 .313-.13.702.702 0 0 0 .209-.261c.052-.105.078-.261.078-.444 0-.26-.052-.496-.13-.652a.95.95 0 0 0-.365-.418 1.272 1.272 0 0 0-.548-.208c-.209-.026-.418-.053-.679-.053-.496 0-.913.13-1.253.366-.313.235-.495.626-.495 1.148h-.783v.026zm4.253.966c-.078.104-.182.156-.313.208a1.154 1.154 0 0 1-.391.079c-.339.052-.679.104-1.044.156-.365.052-.678.105-.992.209-.287.104-.548.235-.73.392a.98.98 0 0 0-.287.73c0 .209.052.392.13.548.078.157.183.287.313.418.131.104.287.208.47.26.183.053.365.079.548.079.313 0 .6-.052.887-.13.287-.105.522-.235.731-.418.209-.183.365-.391.496-.652.13-.261.182-.548.182-.862V25.87zM156.73 20.388h.809v9.056h-.809v-9.056zM72.102 40.04a3.706 3.706 0 0 0-.365-.94c-.157-.288-.392-.496-.627-.679-.26-.183-.522-.34-.835-.417a2.842 2.842 0 0 0-.94-.157c-.6 0-1.121.104-1.539.34a3.03 3.03 0 0 0-1.07.913c-.287.365-.47.809-.6 1.278-.13.47-.209.966-.209 1.462s.078.965.209 1.461c.13.47.34.913.6 1.279.287.365.626.678 1.07.913.444.235.94.34 1.54.34.417 0 .809-.079 1.148-.235.34-.157.626-.366.887-.627.235-.26.444-.574.6-.913.157-.34.261-.73.288-1.122h.86a4.613 4.613 0 0 1-.39 1.513c-.21.444-.47.836-.784 1.149-.313.313-.704.548-1.122.73-.417.183-.913.261-1.461.261-.705 0-1.331-.13-1.88-.391-.547-.261-.99-.6-1.33-1.044a4.582 4.582 0 0 1-.809-1.488 5.845 5.845 0 0 1-.261-1.774c0-.626.078-1.227.261-1.775a4.45 4.45 0 0 1 .809-1.513 4.012 4.012 0 0 1 1.33-1.044c.549-.261 1.15-.392 1.88-.392.444 0 .861.053 1.253.183a3.517 3.517 0 0 1 1.957 1.488c.235.365.365.782.417 1.252h-.887v-.052zM77.531 39.596c.496 0 .94.104 1.331.287.392.182.705.443.966.756.26.313.47.679.6 1.096.13.418.209.862.209 1.331 0 .47-.079.914-.209 1.331-.13.418-.34.783-.6 1.096a2.707 2.707 0 0 1-.966.731c-.391.183-.835.261-1.33.261-.497 0-.94-.078-1.332-.261a2.706 2.706 0 0 1-.965-.73 3.19 3.19 0 0 1-.6-1.097 4.44 4.44 0 0 1-.21-1.33c0-.47.08-.914.21-1.332.13-.417.339-.782.6-1.096.26-.313.574-.574.965-.757a3.114 3.114 0 0 1 1.331-.286zm0 .678c-.391 0-.704.078-.991.235a2.038 2.038 0 0 0-.705.626c-.183.261-.34.548-.444.887-.104.34-.156.679-.156 1.018 0 .34.052.679.156 1.018.105.34.235.626.444.887.183.261.418.47.705.627.287.156.626.234.991.234.392 0 .705-.078.992-.234a2.04 2.04 0 0 0 .705-.627c.182-.26.339-.548.443-.887.105-.34.157-.678.157-1.018 0-.339-.052-.678-.157-1.018-.104-.339-.235-.626-.443-.887-.21-.26-.418-.47-.705-.626a1.992 1.992 0 0 0-.992-.235zM82.305 39.804h.731V40.9h.026a2.27 2.27 0 0 1 .835-.94c.34-.234.783-.338 1.305-.338.444 0 .81.104 1.174.313.34.209.575.522.705.965.183-.443.47-.756.861-.965a2.523 2.523 0 0 1 1.227-.313c1.435 0 2.166.756 2.166 2.296v4.437h-.81v-4.41c0-.549-.104-.94-.338-1.227-.235-.287-.627-.418-1.2-.418-.34 0-.627.078-.862.209-.235.13-.418.313-.548.522-.13.209-.235.47-.287.757a4.889 4.889 0 0 0-.078.887v3.706h-.81v-4.437c0-.209-.026-.417-.078-.626a1.593 1.593 0 0 0-.235-.522.897.897 0 0 0-.417-.34 1.612 1.612 0 0 0-.653-.13c-.339 0-.626.052-.887.183-.26.13-.444.287-.6.496-.157.209-.261.47-.34.756-.078.288-.104.6-.104.966v3.654h-.809v-6.577h.026zM93.37 39.804h.73V40.9h.026c.209-.417.496-.73.835-.94.34-.234.783-.338 1.305-.338.444 0 .809.104 1.174.313.34.209.574.522.705.965.183-.443.47-.756.861-.965a2.524 2.524 0 0 1 1.227-.313c1.435 0 2.166.756 2.166 2.296v4.437h-.809v-4.41c0-.549-.105-.94-.34-1.227-.235-.287-.626-.418-1.2-.418-.34 0-.626.078-.861.209-.235.13-.418.313-.548.522-.13.209-.235.47-.287.757a4.88 4.88 0 0 0-.079.887v3.706h-.809v-4.437c0-.209-.026-.417-.078-.626a1.593 1.593 0 0 0-.235-.522.896.896 0 0 0-.417-.34 1.611 1.611 0 0 0-.653-.13c-.34 0-.626.052-.887.183-.261.13-.444.287-.6.496-.157.209-.261.47-.34.756-.078.288-.104.6-.104.966v3.654h-.783v-6.577zM104.461 37.299h.809v1.279h-.809v-1.28zm0 2.505h.809v6.55h-.809v-6.55zM111.219 41.71c0-.236-.052-.47-.156-.653-.105-.183-.209-.34-.366-.444a1.33 1.33 0 0 0-.548-.26 2.62 2.62 0 0 0-.652-.08c-.183 0-.365.027-.548.053-.183.026-.339.105-.496.183a.916.916 0 0 0-.365.339c-.105.157-.131.313-.131.522 0 .183.052.34.131.444a.97.97 0 0 0 .339.313c.13.078.287.156.444.209.156.052.313.104.443.13l1.07.235c.235.026.444.104.679.183.235.078.417.208.6.339.183.156.313.313.417.522.105.209.157.47.157.757 0 .365-.078.652-.235.913-.156.26-.365.444-.626.6-.261.157-.522.261-.835.34a3.78 3.78 0 0 1-.914.104c-.756 0-1.383-.183-1.879-.548-.469-.366-.756-.94-.809-1.749h.809c.027.548.235.94.601 1.227.365.287.809.417 1.331.417.182 0 .391-.026.6-.052.209-.052.391-.104.574-.209.183-.104.313-.234.444-.391a1.005 1.005 0 0 0 .052-1.07 1.296 1.296 0 0 0-.313-.34 1.964 1.964 0 0 0-.47-.208c-.183-.052-.339-.104-.522-.157l-1.018-.234a24.692 24.692 0 0 1-.731-.235 2.103 2.103 0 0 1-.574-.34 1.71 1.71 0 0 1-.391-.47c-.104-.182-.131-.417-.131-.704 0-.34.079-.6.235-.861a2.061 2.061 0 0 1 1.357-.887 3.24 3.24 0 0 1 .861-.105c.34 0 .627.052.914.13a2.1 2.1 0 0 1 .757.392c.208.183.391.392.522.653.13.26.208.574.208.913h-.835v.078zM117.823 41.71c0-.236-.052-.47-.157-.653-.104-.183-.209-.34-.365-.444a1.337 1.337 0 0 0-.548-.26 2.634 2.634 0 0 0-.653-.08c-.182 0-.365.027-.548.053-.182.026-.339.105-.495.183a.926.926 0 0 0-.366.339c-.104.157-.13.313-.13.522 0 .183.052.34.13.444.079.13.209.234.339.313.131.078.288.156.444.209.157.052.313.104.444.13l1.07.235c.235.026.443.104.678.183.235.078.418.208.6.339.183.156.314.313.418.522.104.209.157.47.157.757 0 .365-.079.652-.235.913-.157.26-.366.444-.627.6-.261.157-.522.261-.835.34a3.772 3.772 0 0 1-.913.104c-.757 0-1.383-.183-1.879-.548-.47-.366-.757-.94-.809-1.749h.809c.026.548.235.94.6 1.227.366.287.809.417 1.331.417.183 0 .392-.026.6-.052.209-.052.392-.104.574-.209.183-.104.314-.234.444-.391a1.006 1.006 0 0 0 .052-1.07 1.263 1.263 0 0 0-.313-.34 1.946 1.946 0 0 0-.47-.208c-.182-.052-.339-.104-.522-.157l-1.017-.234a24.692 24.692 0 0 1-.731-.235 2.074 2.074 0 0 1-.574-.34 1.714 1.714 0 0 1-.392-.47c-.104-.182-.13-.417-.13-.704 0-.34.078-.6.235-.861a2.061 2.061 0 0 1 1.357-.887 3.24 3.24 0 0 1 .861-.105c.339 0 .626.052.913.13a2.1 2.1 0 0 1 .757.392c.209.183.392.392.522.653.131.26.209.574.209.913h-.835v.078zM120.51 37.299h.809v1.279h-.809v-1.28zm0 2.505h.809v6.55h-.809v-6.55zM126.121 39.596c.496 0 .94.104 1.331.287.391.182.705.443.966.756a3.2 3.2 0 0 1 .6 1.096c.13.418.209.862.209 1.331 0 .47-.079.914-.209 1.331a3.2 3.2 0 0 1-.6 1.096 2.713 2.713 0 0 1-.966.731c-.391.183-.835.261-1.331.261s-.939-.078-1.331-.261a2.71 2.71 0 0 1-.965-.73 3.202 3.202 0 0 1-.601-1.097 4.455 4.455 0 0 1-.208-1.33c0-.47.078-.914.208-1.332.131-.417.34-.782.601-1.096.261-.313.574-.574.965-.757a3.116 3.116 0 0 1 1.331-.286zm0 .678a1.997 1.997 0 0 0-1.696.861c-.183.261-.339.548-.444.887-.104.34-.156.679-.156 1.018 0 .34.052.679.156 1.018.105.34.235.626.444.887.183.261.417.47.704.627.288.156.627.234.992.234.392 0 .705-.078.992-.234.287-.157.522-.366.704-.627.183-.26.34-.548.444-.887.104-.34.157-.678.157-1.018 0-.339-.053-.678-.157-1.018-.104-.339-.235-.626-.444-.887-.208-.26-.417-.47-.704-.626a2.065 2.065 0 0 0-.992-.235zM130.872 39.804h.809v1.122h.026c.156-.391.417-.704.809-.965a2.429 2.429 0 0 1 1.279-.365c.443 0 .835.052 1.148.182.313.13.548.287.731.496.182.209.313.47.391.783.078.313.104.652.104 1.044v4.201h-.782v-4.07c0-.288-.027-.549-.079-.784a1.668 1.668 0 0 0-.261-.626 1.197 1.197 0 0 0-.522-.418c-.208-.104-.496-.156-.809-.156-.313 0-.6.052-.861.183a1.42 1.42 0 0 0-.626.47 2.405 2.405 0 0 0-.418.704 2.55 2.55 0 0 0-.156.887v3.81h-.809v-6.498h.026zM48.537.45H.963v47.575h47.574V.45z" fill="#000"/>
    <path d="M10.018 10.733H6.104v19.285h3.914V10.733zM26.956 10.289H17.43c-.913 0-2.27 1.017-2.27 2.479v14.118c0 1.148 1.044 3.08 2.845 3.08h9.134v-1.619H20.64c-1.148 0-1.696-.548-1.696-1.252v-5.272c0-.548-.235-1.461.444-1.461h5.715V18.9h-5.559c-.73 0-.6-.523-.6-.966v-4.436c0-.496-.026-1.358.94-1.358h7.046V10.29h.026zM43.763 13.499s-2.113-3.602-6.915-3.602c-3.915 0-9.03 3.654-9.03 10.44 0 7.384 5.794 10.099 9.29 10.099 5.35 0 7.282-4.959 7.282-4.959l-.914-.861S41.023 29 37.37 29c-2.245 0-5.846-2.244-5.846-8.664 0-7.124 3.053-8.925 5.846-8.925 3.445 0 5.428 3.106 5.428 3.106l.965-1.018zM37.787 35.524H6.105v-.835h32.726s-.027-.078-.548.34c-.366.313-.496.495-.496.495zM37.447 36.881H6.105v.94h31.342v-.94zM38.804 40.117H6.105v-.809h31.682l.365.366c.418.417.652.443.652.443zM41.258 40.248c1.488 0 2.688-1.253 2.688-2.819s-1.2-2.818-2.688-2.818c-1.487 0-2.688 1.253-2.688 2.818 0 1.54 1.2 2.819 2.688 2.819z" fill="#fff"/>
    <path d="M41.207 41.318c2.14 0 3.888-1.749 3.888-3.915s-1.748-3.914-3.888-3.914c-2.14 0-3.889 1.748-3.889 3.914 0 2.166 1.723 3.915 3.889 3.915z" fill="#000"/>
    <path d="M41.284 40.248c1.488 0 2.688-1.253 2.688-2.819s-1.2-2.818-2.688-2.818c-1.487 0-2.688 1.253-2.688 2.818-.026 1.54 1.2 2.819 2.688 2.819z" fill="#fff"/>
    <path d="M53.028 42.388c1.54 0 2.845 1.226 2.845 2.818a2.834 2.834 0 0 1-2.845 2.845 2.834 2.834 0 0 1-2.844-2.845c0-1.618 1.304-2.818 2.844-2.818zm0 5.219c1.305 0 2.323-1.044 2.323-2.427 0-1.357-1.018-2.4-2.323-2.4-1.33 0-2.322 1.043-2.322 2.4 0 1.383 1.017 2.427 2.322 2.427zm-1.096-4.045h1.279c.783 0 1.148.313 1.148.94 0 .6-.365.835-.861.887l.94 1.461h-.549l-.887-1.409h-.548v1.41h-.522v-3.289zm.522 1.461h.548c.444 0 .861-.026.861-.548 0-.443-.365-.495-.73-.495h-.679v1.043z" fill="#000"/>
</svg>
