<svg width="139" height="67" viewBox="0 0 139 67" fill="none" xmlns="http://www.w3.org/2000/svg">
    <path d="M15.53 52.624H9.973v13.894H6.233V52.624H.75V49.84h14.78v2.784z" fill="#000"/>
    <path d="M11.284 60.206c0-1.23.258-2.325.773-3.287a5.39 5.39 0 0 1 2.224-2.233c.968-.529 2.092-.79 3.371-.79 1.82 0 3.305.51 4.456 1.534 1.151 1.023 1.792 2.413 1.925 4.17l.025.847c0 1.902-.578 3.426-1.732 4.577-1.155 1.148-2.706 1.724-4.65 1.724-1.944 0-3.496-.573-4.654-1.718-1.159-1.145-1.739-2.704-1.739-4.674l.001-.16v.01zm3.601.236c0 1.177.242 2.078.723 2.702.482.623 1.172.935 2.07.935.872 0 1.553-.308 2.043-.923.491-.617.736-1.6.736-2.955 0-1.155-.245-2.05-.736-2.685-.49-.634-1.179-.952-2.069-.952-.88 0-1.562.315-2.043.945-.482.627-.724 1.605-.724 2.928v.005zM33.331 65.256c-.888.994-2.118 1.49-3.689 1.49-1.445 0-2.548-.381-3.308-1.145-.761-.765-1.15-1.882-1.166-3.357v-8.12h3.602v8.015c0 1.293.64 1.94 1.919 1.94 1.222 0 2.06-.39 2.518-1.17v-8.782h3.614v12.394h-3.39l-.1-1.26v-.005zM44.125 64.078c.665 0 1.205-.168 1.62-.504.416-.335.632-.783.648-1.34h3.378a4.002 4.002 0 0 1-.748 2.309c-.492.699-1.161 1.24-2.013 1.626-.852.386-1.793.579-2.823.579-1.928 0-3.449-.563-4.562-1.689-1.113-1.126-1.67-2.683-1.67-4.67v-.217c0-1.908.553-3.432 1.658-4.571 1.105-1.138 2.62-1.706 4.548-1.706 1.687 0 3.04.44 4.057 1.323 1.018.88 1.536 2.054 1.552 3.522h-3.377c-.017-.645-.233-1.168-.648-1.572-.416-.404-.964-.603-1.646-.603-.838 0-1.471.281-1.9.844-.428.561-.642 1.474-.642 2.736v.343c0 1.278.212 2.196.636 2.755.423.56 1.068.836 1.932.836v-.001zM54.32 55.476c.956-1.054 2.154-1.58 3.602-1.58 2.925 0 4.408 1.56 4.45 4.684v7.938h-3.603v-7.864c0-.712-.166-1.239-.498-1.58-.333-.34-.886-.51-1.658-.51-1.056 0-1.82.374-2.294 1.126v8.828h-3.602V48.922h3.602v6.555-.001zM63.468 66.517V49.84h6.356c2.2 0 3.871.387 5.011 1.162 1.137.775 1.707 1.911 1.707 3.408 0 .819-.229 1.537-.686 2.16-.457.622-1.093 1.078-1.906 1.367.93.215 1.664.648 2.2 1.295.535.65.802 1.444.802 2.383 0 1.605-.556 2.816-1.668 3.643-1.114.824-2.702 1.245-4.761 1.26h-7.064.009zm3.741-9.69h2.768c1.886-.03 2.829-.722 2.829-2.074 0-.755-.238-1.3-.717-1.633-.476-.331-1.23-.497-2.26-.497H67.21v4.203h-.002zm0 2.428v4.503h3.204c.88 0 1.567-.193 2.062-.579.495-.384.741-.917.741-1.597 0-1.529-.86-2.303-2.58-2.325l-3.427-.005v.003zM86.315 66.517c-.166-.298-.286-.667-.362-1.112-.872.895-2.007 1.34-3.402 1.34-1.322 0-2.416-.35-3.284-1.052-.868-.703-1.302-1.588-1.302-2.66 0-1.313.53-2.32 1.59-3.024 1.059-.701 2.59-1.056 4.592-1.066h1.658v-.709c0-.574-.16-1.031-.48-1.375-.32-.343-.824-.515-1.514-.515-.607 0-1.082.133-1.427.401s-.517.634-.517 1.1H78.27c0-.719.24-1.383.723-1.996.48-.608 1.162-1.089 2.044-1.436.88-.348 1.869-.52 2.965-.52 1.663 0 2.981.381 3.957 1.148.976.769 1.465 1.847 1.465 3.237v5.373c.009 1.175.186 2.066.537 2.668v.195h-3.64l-.007.003zm-2.978-2.298c.532 0 1.02-.11 1.47-.329.449-.216.782-.508.997-.874v-2.131h-1.347c-1.803 0-2.76.573-2.877 1.719l-.013.194c0 .412.158.752.474 1.02.32.265.751.4 1.3.4l-.004.001zM98.466 63.094c0-.405-.217-.724-.654-.957-.437-.231-1.137-.44-2.1-.623-3.208-.62-4.812-1.873-4.812-3.758 0-1.1.498-2.019 1.49-2.755.992-.737 2.29-1.105 3.895-1.105 1.712 0 3.08.37 4.106 1.11 1.028.742 1.54 1.704 1.54 2.887h-3.602c0-.474-.166-.865-.5-1.174-.33-.31-.85-.465-1.557-.465-.606 0-1.075.128-1.407.38-.331.253-.498.573-.498.96 0 .369.188.665.567.89.378.226 1.016.42 1.913.584.898.164 1.653.35 2.268.555 1.903.643 2.854 1.754 2.854 3.333 0 1.13-.526 2.045-1.583 2.744-1.054.7-2.416 1.048-4.087 1.048-1.13 0-2.134-.185-3.01-.555-.877-.371-1.565-.878-2.063-1.524-.498-.645-.748-1.342-.748-2.09h3.415c.033.588.27 1.038.711 1.351.44.313 1.03.47 1.77.47.69 0 1.21-.12 1.564-.36.35-.242.525-.56.525-.95l.003.004zM109.475 66.747c-1.978 0-3.587-.557-4.829-1.672-1.243-1.116-1.863-2.6-1.863-4.457v-.321c0-1.244.262-2.357.786-3.34a5.498 5.498 0 0 1 2.224-2.268c.96-.53 2.053-.795 3.284-.795 1.845 0 3.296.533 4.356 1.603 1.059 1.07 1.59 2.586 1.59 4.547v1.353h-8.587c.117.809.469 1.46 1.055 1.947.584.49 1.326.734 2.224.734 1.387 0 2.47-.462 3.253-1.386l1.769 1.82c-.54.704-1.271 1.251-2.194 1.645-.927.4-1.952.595-3.071.595l.003-.005zm-.414-10.183c-.714 0-1.294.222-1.738.666-.444.447-.728 1.082-.853 1.91h5.009v-.264c-.016-.737-.232-1.305-.648-1.708-.415-.402-1.014-.604-1.777-.604h.007zM117.594 56.897v4.414h-1.619v-11.28h4.526c1.343 0 2.395.314 3.156.946.762.63 1.143 1.464 1.143 2.5 0 1.096-.373 1.939-1.118 2.53-.744.592-1.809.888-3.197.888H117.6l-.006.002zm0-1.216h2.906c.865 0 1.528-.187 1.99-.563.459-.376.691-.917.691-1.626 0-.673-.231-1.21-.691-1.614-.462-.404-1.095-.612-1.898-.627h-2.999v4.43h.006-.005zM130.334 54.217a4.923 4.923 0 0 0-.765-.055c-1.023 0-1.717.401-2.082 1.2v5.949h-1.559v-8.383h1.517l.025.97c.511-.751 1.237-1.124 2.175-1.124.303 0 .534.036.691.109v1.33l-.002.004zM130.451 57.045c0-.823.175-1.56.527-2.216a3.713 3.713 0 0 1 1.465-1.518c.626-.357 1.341-.535 2.146-.535 1.242 0 2.246.396 3.013 1.184.766.792 1.15 1.842 1.15 3.155v.1c0 .817-.17 1.55-.51 2.197a3.67 3.67 0 0 1-1.457 1.515c-.632.36-1.358.542-2.179.542-1.236 0-2.238-.394-3.004-1.185-.767-.79-1.15-1.836-1.15-3.137l.006-.101-.007-.001zm1.562.17c0 .929.236 1.676.705 2.24.47.562 1.098.844 1.882.844.793 0 1.422-.286 1.889-.855.466-.573.7-1.371.7-2.398 0-.92-.238-1.665-.714-2.235-.474-.572-1.105-.857-1.892-.857-.768 0-1.39.283-1.862.845-.472.56-.711 1.365-.711 2.413l.003.002zM70.258 22.624l7.586.002c.012 0 .513 0 1.03-.26.258-.13.522-.328.718-.626.199-.3.325-.697.325-1.21l.002-7.487h-.27l-.004 7.487c0 .467-.113.804-.279 1.057-.247.376-.623.569-.946.667a2.43 2.43 0 0 1-.534.096l-.032.001h-.01l-7.586-.002v.275h-.012.012z" fill="#000"/>
    <path d="m74.494 26.923 1.02 1.033 9.617-9.713-1.108-1.12-.192.194.915.926-9.232 9.324-.828-.839-.192.195z" fill="#000"/>
    <path d="m84.023 17.123-4.301-4.346-9.61 9.712 4.382 4.434.192-.195-4.19-4.24 9.226-9.323 4.109 4.152.192-.194zM67.798 17.338l5.364-5.423c.009-.007.364-.364.547-.918.091-.277.138-.605.07-.958-.07-.354-.257-.724-.617-1.087a.127.127 0 0 0-.064-.037c-.013-.004-.02-.004-.025-.004h-.002c.002.002.011-.002.04.008.01.003.025.01.041.023l-.085.107.124-.057a.162.162 0 0 0-.038-.05l-.085.107.124-.057-.124.057.134.03a.13.13 0 0 0-.01-.086l-.124.057.134.03c-.007.028-.015.037-.02.044l-.112-.074.103.088.01-.014-.112-.074.103.088.081-.097-5.323-5.386-.191.194 5.233 5.297.097-.097-.105-.088-.008.01-.012.023c-.005.011-.012.026-.012.055a.133.133 0 0 0 .028.084.137.137 0 0 0 .053.043c.026.011.04.01.047.011h.006l-.022-.001.024-.136-.096.097a.122.122 0 0 0 .072.039l.024-.136-.096.097c.326.33.482.65.54.946.088.445-.044.851-.204 1.151a2.528 2.528 0 0 1-.31.448l-.02.024-.007.005-.001.002-5.366 5.422.186.194h.006z" fill="#000"/>
    <path d="M73.8 17.348h1.446l.005-13.74h-1.567v.274h1.294v13.19H73.8v.276z" fill="#000"/>
    <path d="m73.684 3.608-6.078-.002v13.74l6.195.002v-.275l-5.927-.002.005-13.19 5.805.001v-.274zM62.447 15.783l.003-7.67c-.001-.012 0-.518-.255-1.041a1.857 1.857 0 0 0-.622-.726c-.296-.2-.688-.33-1.196-.33l-7.399-.002v.275l7.405.002c.463 0 .795.117 1.046.284.373.25.562.631.659.959a2.484 2.484 0 0 1 .097.537c0 .015 0 .026.002.034v.008l-.004 7.67h.274-.01z" fill="#000"/>
    <path d="m66.701 11.498 1.02-1.032L58.117.747l-1.11 1.12.194.194.916-.925 9.22 9.33-.828.838.192.194z" fill="#000"/>
    <path d="m57.008 1.867-4.297 4.344 9.608 9.718 4.382-4.431-.192-.195-4.19 4.236-9.225-9.328 4.108-4.15-.194-.194zM57.221 18.268l-5.362-5.425a2.505 2.505 0 0 0-.91-.554 1.817 1.817 0 0 0-.947-.068c-.348.069-.717.258-1.076.622a.136.136 0 0 0-.036.066c-.004.012-.004.02-.004.024v.003c0-.003-.002-.011.008-.04a.112.112 0 0 1 .024-.043.127.127 0 0 1 .048-.038.135.135 0 0 1 .085-.009c.03.006.039.014.046.018l-.075.115.087-.105-.012-.01-.075.114.087-.105-.095-.08-5.327 5.381.192.194 5.238-5.292-.095-.097-.09.105.013.008.023.012c.01.006.026.012.054.013a.136.136 0 0 0 .085-.029.124.124 0 0 0 .04-.053c.01-.028.01-.04.01-.047l.001-.006-.001.02-.134-.023.096.098c.03-.031.035-.06.038-.074l-.134-.024.096.098c.328-.33.644-.488.937-.547.438-.09.84.044 1.135.206.15.08.268.168.351.233.041.033.073.062.095.081l.023.022.006.005v.001l5.363 5.426.192-.196z" fill="#000"/>
    <path d="M57.231 12.197v-1.46l-13.588-.004v1.585h.272v-1.31l13.045.004v1.185h.271z" fill="#000"/>
    <path d="m43.642 12.318-.001 6.144 13.588.004.001-6.269h-.27l-.002 5.994-13.045-.005.001-5.868h-.272zM55.266 23.52l-7.585-.002c-.012 0-.512-.002-1.03.258-.258.13-.522.329-.718.627-.197.3-.326.697-.326 1.209l-.002 7.488h.273l.002-7.488c0-.467.113-.804.28-1.055.247-.377.625-.57.947-.668a2.38 2.38 0 0 1 .41-.086c.053-.007.094-.009.123-.01l.032-.002h.01l7.584.003v-.275z" fill="#000"/>
    <path d="m51.03 19.219-1.022-1.032-9.611 9.713 1.107 1.12.192-.194-.915-.926 9.227-9.323.83.837.191-.195z" fill="#000"/>
    <path d="m41.504 29.02 4.295 4.346 9.613-9.712-4.383-4.435-.192.195 4.19 4.24-9.228 9.323-4.104-4.151-.191.194zM57.45 29.158l-5.365 5.423a2.52 2.52 0 0 0-.547.92 1.875 1.875 0 0 0-.07.956c.07.352.256.725.615 1.089a.14.14 0 0 0 .092.04h.002c-.002 0-.012.003-.04-.007a.137.137 0 0 1-.043-.025l.086-.106-.123.057c.008.02.023.038.036.05l.087-.107-.124.057.124-.057-.133-.03a.133.133 0 0 0 .01.086l.123-.057-.133-.03c.007-.029.014-.038.018-.045l.113.075-.104-.088-.01.013.113.075-.103-.088-.082.097 5.325 5.385.19-.194-5.233-5.296-.095.097.102.09.009-.012.012-.023c.005-.012.012-.027.012-.055a.14.14 0 0 0-.03-.086.118.118 0 0 0-.053-.041c-.026-.012-.037-.01-.045-.012h-.006l.021.002-.024.135.095-.097c-.03-.03-.058-.034-.07-.037l-.025.135.095-.097c-.326-.331-.48-.65-.54-.946-.086-.445.044-.85.204-1.15.08-.15.165-.271.23-.354.034-.041.061-.075.08-.095l.022-.023.005-.005v-.002l5.367-5.422-.19-.195z" fill="#000"/>
    <path d="M51.445 29.149h-1.444l-.005 13.74h1.568v-.275h-1.296l.004-13.19h1.173v-.275z" fill="#000"/>
    <path d="M51.564 42.89h6.076l.005-13.74-6.2-.001v.276h5.928l-.004 13.19h-5.805v.274zM62.797 30.713l-.002 7.67c0 .011 0 .518.256 1.041.129.262.326.528.62.726.297.2.69.33 1.197.33l7.404.003v-.276l-7.404-.002c-.463 0-.796-.115-1.045-.283-.373-.251-.563-.63-.66-.957a2.642 2.642 0 0 1-.086-.416c-.006-.053-.008-.095-.01-.124l-.002-.032v-.01l.002-7.67h-.274.004z" fill="#000"/>
    <path d="m58.547 34.999-1.022 1.032 9.609 9.719 1.107-1.12-.192-.196-.915.927-9.224-9.33.83-.837-.194-.195z" fill="#000"/>
    <path d="m68.242 44.63 4.295-4.345-9.605-9.717-4.385 4.43.193.196 4.192-4.238 9.22 9.33-4.103 4.148.192.196z" fill="#000"/>
    <path d="m68.293 35.562-.018-7.497 13.236-.035.018 7.497-13.236.035z" fill="#959595"/>
    <path d="M68.02 34.299v1.46l13.585.004V34.18h-.268v1.31l-13.05-.004v-1.186h-.268z" fill="#000"/>
    <path d="m81.605 34.178.006-6.143-13.592-.005v6.269h.269l.005-5.994 13.044.004v5.87h.268z" fill="#000"/>
    <path d="m68.398 28.315 5.05 5.123s1.31 1.33 2.628.005l5.08-5.12-12.757-.008z" fill="#000"/>
    <path d="m68.025 28.227 5.362 5.426c.01.007.362.367.91.552.274.093.597.142.947.072.348-.072.717-.26 1.076-.623.028-.03.031-.05.034-.054v-.002l-.13-.04.12.062a.103.103 0 0 0 .01-.022l-.13-.04.12.062-.12-.062.083.109a.128.128 0 0 0 .038-.046l-.121-.063.083.11-.083-.11.024.135a.13.13 0 0 0 .059-.026l-.083-.109.024.135-.024-.135-.04.131c.012.004.035.01.064.004l-.024-.135-.04.131.04-.13-.07.116c.008.004.014.01.03.014l.04-.131-.07.116.09.056 5.314-5.37-.192-.193-5.239 5.294.097.097.07-.118c-.01-.005-.026-.017-.069-.02a.135.135 0 0 0-.053.012.128.128 0 0 0-.066.056l-.01.024-.002.003v.001l.13.042-.097-.097c-.031.034-.032.054-.033.055l.13.042-.097-.097c-.327.33-.642.486-.936.546-.438.089-.84-.044-1.136-.206a2.492 2.492 0 0 1-.351-.233 4.236 4.236 0 0 1-.092-.08l-.025-.021-.006-.006-.002-.001-5.36-5.426-.192.193h-.002z" fill="#000"/>
</svg>
